HIERARCHY
ROOT joint_Root
{
	OFFSET 0.0 0.0 0.0
	CHANNELS 6 Xposition Yposition Zposition Zrotation Xrotation Yrotation 
	JOINT Hips
	{
		OFFSET -0.726466 93.3139 -2.00062
		CHANNELS 6 Xposition Yposition Zposition Zrotation Xrotation Yrotation 
		JOINT Spine
		{
			OFFSET 15.7357 0.0 0.0
			CHANNELS 6 Xposition Yposition Zposition Zrotation Xrotation Yrotation 
			JOINT Chest
			{
				OFFSET 8.98455 -0.406207 0.0
				CHANNELS 6 Xposition Yposition Zposition Zrotation Xrotation Yrotation 
				JOINT Neck
				{
					OFFSET 16.3773 0.0 0.0
					CHANNELS 6 Xposition Yposition Zposition Zrotation Xrotation Yrotation 
					JOINT Head
					{
						OFFSET 6.45672 0.0 0.0
						CHANNELS 6 Xposition Yposition Zposition Zrotation Xrotation Yrotation 
						End Site
						{
							OFFSET 0.0 0.0 0.0
						}
					}
				}
				JOINT Shoulder_L
				{
					OFFSET 12.9942 -0.242716 4.98039
					CHANNELS 6 Xposition Yposition Zposition Zrotation Xrotation Yrotation 
					JOINT UpperArm_L
					{
						OFFSET 5.34809 0.0 0.0
						CHANNELS 6 Xposition Yposition Zposition Zrotation Xrotation Yrotation 
						JOINT LowerArm_L
						{
							OFFSET 24.3286 1.87007e-05 0.0
							CHANNELS 6 Xposition Yposition Zposition Zrotation Xrotation Yrotation 
							JOINT Hand_L
							{
								OFFSET 22.2916 0.0 0.0
								CHANNELS 6 Xposition Yposition Zposition Zrotation Xrotation Yrotation 
								End Site
								{
									OFFSET 0.0 0.0 0.0
								}
							}
						}
					}
				}
				JOINT Shoulder_R
				{
					OFFSET 12.9945 -0.242716 -4.98039
					CHANNELS 6 Xposition Yposition Zposition Zrotation Xrotation Yrotation 
					JOINT UpperArm_R
					{
						OFFSET -5.34813 0.0 0.0
						CHANNELS 6 Xposition Yposition Zposition Zrotation Xrotation Yrotation 
						JOINT LowerArm_R
						{
							OFFSET -24.3289 0.000322201 0.0
							CHANNELS 6 Xposition Yposition Zposition Zrotation Xrotation Yrotation 
							JOINT Hand_R
							{
								OFFSET -22.2915 -0.000108084 0.0
								CHANNELS 6 Xposition Yposition Zposition Zrotation Xrotation Yrotation 
								End Site
								{
									OFFSET 0.0 0.0 0.0
								}
							}
						}
					}
				}
			}
		}
		JOINT UpperLeg_L
		{
			OFFSET -2.19248 -6.46944 0.0
			CHANNELS 6 Xposition Yposition Zposition Zrotation Xrotation Yrotation 
			JOINT LowerLeg_L
			{
				OFFSET 39.0811 0.0 -1.23785e-05
				CHANNELS 6 Xposition Yposition Zposition Zrotation Xrotation Yrotation 
				JOINT Foot_L
				{
					OFFSET 40.9854 0.0 -1.26872e-05
					CHANNELS 6 Xposition Yposition Zposition Zrotation Xrotation Yrotation 
					JOINT Toes_L
					{
						OFFSET 11.7543 0.0 0.0
						CHANNELS 6 Xposition Yposition Zposition Zrotation Xrotation Yrotation 
						End Site
						{
							OFFSET 0.0 0.0 0.0
						}
					}
				}
			}
		}
		JOINT UpperLeg_R
		{
			OFFSET -2.19251 6.46944 0.0
			CHANNELS 6 Xposition Yposition Zposition Zrotation Xrotation Yrotation 
			JOINT LowerLeg_R
			{
				OFFSET -39.0811 -0.00228153 -0.0401928
				CHANNELS 6 Xposition Yposition Zposition Zrotation Xrotation Yrotation 
				JOINT Foot_R
				{
					OFFSET -40.9854 0.0 0.0
					CHANNELS 6 Xposition Yposition Zposition Zrotation Xrotation Yrotation 
					JOINT Toes_R
					{
						OFFSET -11.7543 0.0 0.0
						CHANNELS 6 Xposition Yposition Zposition Zrotation Xrotation Yrotation 
						End Site
						{
							OFFSET 0.0 0.0 0.0
						}
					}
				}
			}
		}
	}
}
MOTION
Frames:	5
Frame Time:	0.0333333
0.000000 0.000000 0.000000 0.000000 0.000000 -0.000000 -2.482190 92.112600 -1.392350 88.543700 3.530960 2.981240 15.735700 0.000005 -0.000001 77.342300 86.288000 -74.277400 8.984550 -0.406207 -0.000000 -0.465478 -1.846430 6.119400 16.377300 -0.000001 -0.000001 1.735740 -3.085640 0.544510 6.456720 -0.000001 -0.000000 0.674815 -4.839380 12.585600 12.994200 -0.242716 4.980390 -83.404300 -12.517400 -61.920300 5.348090 -0.000007 -0.000001 -75.394000 -63.736500 -111.522000 24.328600 0.000019 0.000005 -1.161330 -0.942007 -50.958900 22.291600 -0.000001 0.000005 16.178400 5.578830 -10.149700 12.994500 -0.242716 -4.980390 90.416000 -1.132020 -69.819900 -5.348130 -0.000001 -0.000004 -44.187900 76.854400 -6.189070 -24.328900 0.000322 -0.000009 20.209500 3.463510 -80.681200 -22.291500 -0.000108 -0.000004 40.344800 5.658170 -26.389200 -2.192480 -6.469440 -0.000000 -169.351000 -11.761800 -2.629610 39.081100 -0.000007 -0.000012 -0.147701 0.422675 19.261700 40.985400 -0.000006 -0.000013 -6.564790 5.049830 -62.348800 11.754300 -0.000000 0.000003 -0.000026 -0.000320 -16.590100 -2.192510 6.469440 -0.000001 174.659000 22.804200 179.731000 -39.081100 -0.002282 -0.040193 -0.058015 0.169993 19.840500 -40.985400 0.000008 0.000006 -2.724050 0.894031 -64.692300 -11.754300 -0.000006 -0.000006 -0.005860 -0.069558 -19.403900
0.000000 0.000000 0.000000 0.000000 0.000000 -0.000000 -2.450400 92.113800 -1.394840 88.528500 3.418240 2.990140 15.735700 0.000005 -0.000001 77.644900 86.284100 -74.579400 8.984550 -0.406207 -0.000000 -0.450503 -1.809420 6.121240 16.377300 -0.000001 -0.000001 1.703730 -3.105360 0.581963 6.456720 -0.000001 -0.000000 0.615009 -4.879400 12.656300 12.994200 -0.242716 4.980390 -83.399800 -12.525400 -61.918800 5.348090 -0.000007 -0.000001 -75.330100 -63.822900 -111.483000 24.328600 0.000019 0.000005 -1.084380 -0.881498 -50.897400 22.291600 -0.000001 0.000005 16.180100 5.578120 -10.111500 12.994500 -0.242716 -4.980390 90.419800 -1.141750 -69.808700 -5.348130 -0.000001 -0.000004 -44.235800 76.849600 -6.156940 -24.328900 0.000322 -0.000009 20.173700 3.462280 -80.666800 -22.291500 -0.000108 -0.000004 40.342400 5.657720 -26.438800 -2.192480 -6.469440 -0.000000 -169.357000 -11.786700 -2.614450 39.081100 -0.000007 -0.000012 -0.148087 0.422921 19.298000 40.985400 -0.000006 -0.000013 -6.556960 4.948870 -62.387500 11.754300 -0.000000 0.000003 -0.000029 -0.000348 -16.591200 -2.192510 6.469440 -0.000001 174.657000 22.731200 179.725000 -39.081100 -0.002282 -0.040193 -0.057170 0.167804 19.823900 -40.985400 0.000008 0.000006 -2.708560 0.962945 -64.662800 -11.754300 -0.000006 -0.000006 -0.006147 -0.072163 -19.510100
0.000000 0.000000 0.000000 0.000000 0.000000 -0.000000 -2.422410 92.114500 -1.418420 88.560900 3.294590 2.952930 15.735700 0.000005 -0.000001 77.831100 86.298700 -74.778600 8.984550 -0.406207 -0.000000 -0.474912 -1.779410 6.094890 16.377300 -0.000001 -0.000001 1.688690 -3.088930 0.611487 6.456720 -0.000001 -0.000000 0.661507 -4.868690 12.706200 12.994200 -0.242716 4.980390 -83.379900 -12.572800 -61.934900 5.348090 -0.000007 -0.000001 -75.645000 -63.806200 -111.702000 24.328600 0.000019 0.000005 -1.085840 -0.882594 -50.900700 22.291600 -0.000001 0.000005 16.211700 5.578360 -10.124100 12.994500 -0.242716 -4.980390 90.427800 -1.164710 -69.830400 -5.348130 -0.000001 -0.000004 -44.379400 76.868900 -6.006480 -24.328900 0.000322 -0.000009 20.144300 3.449320 -80.686600 -22.291500 -0.000108 -0.000004 40.401300 5.657820 -26.427700 -2.192480 -6.469440 -0.000000 -169.432000 -11.746200 -2.637220 39.081100 -0.000007 -0.000012 -0.147520 0.421187 19.302900 40.985400 -0.000006 -0.000013 -6.558640 4.781260 -62.411300 11.754300 -0.000000 0.000003 -0.000024 -0.000294 -16.589000 -2.192510 6.469440 -0.000001 174.615000 22.678400 179.651000 -39.081100 -0.002282 -0.040193 -0.058977 0.172717 19.834400 -40.985400 0.000008 0.000006 -2.800030 1.027060 -64.629900 -11.754300 -0.000006 -0.000006 -0.006170 -0.072373 -19.518700
0.000000 0.000000 0.000000 0.000000 0.000000 -0.000000 -2.415740 92.110300 -1.419370 88.531400 3.230400 2.990320 15.735700 0.000005 -0.000001 77.671500 86.269900 -74.611900 8.984550 -0.406207 -0.000000 -0.422044 -1.810940 6.109730 16.377300 -0.000001 -0.000001 1.782070 -3.097930 0.620633 6.456720 -0.000001 -0.000000 0.647176 -4.879450 12.730800 12.994200 -0.242716 4.980390 -83.366400 -12.586100 -61.910700 5.348090 -0.000007 -0.000001 -76.129700 -63.784400 -112.093000 24.328600 0.000019 0.000005 -1.157870 -0.940147 -50.930800 22.291600 -0.000001 0.000005 16.297400 5.579040 -10.160900 12.994500 -0.242716 -4.980390 90.438800 -1.194930 -69.834000 -5.348130 -0.000001 -0.000004 -44.390100 76.825300 -6.036260 -24.328900 0.000322 -0.000009 20.123400 3.451380 -80.670800 -22.291500 -0.000108 -0.000004 40.269500 5.657130 -26.501300 -2.192480 -6.469440 -0.000000 -169.391000 -11.757600 -2.606330 39.081100 -0.000007 -0.000012 -0.148318 0.422274 19.353300 40.985400 -0.000006 -0.000013 -6.560110 4.773980 -62.451200 11.754300 -0.000000 0.000003 -0.000023 -0.000283 -16.588600 -2.192510 6.469440 -0.000001 174.634000 22.653800 179.659000 -39.081100 -0.002282 -0.040193 -0.057319 0.167851 19.863600 -40.985400 0.000008 0.000006 -2.754230 1.065110 -64.633600 -11.754300 -0.000006 -0.000006 -0.005869 -0.069642 -19.407300
0.000000 0.000000 0.000000 0.000000 0.000000 -0.000000 -2.407180 92.114500 -1.452820 88.538100 3.101750 2.994630 15.735700 0.000005 -0.000001 77.922000 86.256000 -74.870600 8.984550 -0.406207 -0.000000 -0.388745 -1.783430 6.093910 16.377300 -0.000001 -0.000001 1.880740 -3.073490 0.623006 6.456720 -0.000001 -0.000000 0.692440 -4.882020 12.807600 12.994200 -0.242716 4.980390 -83.367000 -12.581000 -61.903300 5.348090 -0.000007 -0.000001 -76.505400 -63.779600 -112.429000 24.328600 0.000019 0.000005 -1.161170 -0.941284 -50.976500 22.291600 -0.000001 0.000005 16.429000 5.579760 -10.199100 12.994500 -0.242716 -4.980390 90.438400 -1.190870 -69.789300 -5.348130 -0.000001 -0.000004 -44.381800 76.769100 -6.039090 -24.328900 0.000322 -0.000009 20.110800 3.438840 -80.697800 -22.291500 -0.000108 -0.000004 40.197000 5.656510 -26.569300 -2.192480 -6.469440 -0.000000 -169.394000 -11.855300 -2.576850 39.081100 -0.000007 -0.000012 -0.148204 0.422598 19.325800 40.985400 -0.000006 -0.000013 -6.563260 4.734940 -62.429300 11.754300 -0.000000 0.000003 -0.000019 -0.000244 -16.587100 -2.192510 6.469440 -0.000001 174.654000 22.531400 179.588000 -39.081100 -0.002282 -0.040193 -0.055624 0.162781 19.906200 -40.985400 0.000008 0.000006 -2.650060 1.062670 -64.623300 -11.754300 -0.000006 -0.000006 -0.006018 -0.071003 -19.462800
